<svg width="25" height="25" viewBox="0 0 25 25" fill="none" xmlns="http://www.w3.org/2000/svg">
<path d="M20.8334 16.6667C20.0338 16.6698 19.2659 16.9792 18.6875 17.5313L9.46879 12.5L18.6875 7.46878C19.7661 8.48748 21.4122 8.60748 22.627 7.75596C23.8419 6.90444 24.2906 5.31614 23.7009 3.95482C23.1112 2.5935 21.6456 1.83441 20.1935 2.13818C18.7414 2.44194 17.703 3.72482 17.7084 5.20836C17.6981 5.34359 17.6981 5.47939 17.7084 5.61461L7.91671 10.9688C7.36612 9.98924 6.33203 9.38072 5.20837 9.37503C3.48248 9.37503 2.08337 10.7741 2.08337 12.5C2.08337 14.2259 3.48248 15.625 5.20837 15.625C6.33203 15.6193 7.36612 15.0108 7.91671 14.0313L17.7084 19.3854C17.6981 19.5207 17.6981 19.6565 17.7084 19.7917C17.7084 21.5176 19.1075 22.9167 20.8334 22.9167C22.5593 22.9167 23.9584 21.5176 23.9584 19.7917C23.9584 18.0658 22.5593 16.6667 20.8334 16.6667Z" fill="white"/>
</svg>
